<?xml version="1.0" encoding="UTF-8" standalone="no"?>
<!-- Created with Inkscape (http://www.inkscape.org/) -->

<svg
   xmlns:dc="http://purl.org/dc/elements/1.1/"
   xmlns:cc="http://creativecommons.org/ns#"
   xmlns:rdf="http://www.w3.org/1999/02/22-rdf-syntax-ns#"
   xmlns:svg="http://www.w3.org/2000/svg"
   xmlns="http://www.w3.org/2000/svg"
   xmlns:inkscape="http://www.inkscape.org/namespaces/inkscape"
   version="1.1"
   width="53.0625"
   height="55.0625"
   id="svg2"
   xml:space="preserve"><metadata
     id="metadata8"><rdf:RDF><cc:Work
         rdf:about=""><dc:format>image/svg+xml</dc:format><dc:type
           rdf:resource="http://purl.org/dc/dcmitype/StillImage" /></cc:Work></rdf:RDF></metadata><defs
     id="defs6" /><g
     transform="matrix(1.25,0,0,-1.25,0,55.0625)"
     id="g10"><g
       transform="scale(0.1,0.1)"
       id="g12"><path
         d="m 394.496,277.375 c -11.992,-2.07 -70.465,0.313 -133.789,3.281 1.41,39.375 2.035,69.453 0.586,75.742 -4.762,20.704 3.75,77.344 3.75,77.344 0,0 -7.926,6.172 -19.453,6.641 -26.641,1.015 -72.461,-3.594 -85.152,-7.656 -18.126,-5.86 1.011,-103.711 1.324,-131.993 0.039,-2.89 -0.074,-8.515 -0.231,-15.507 -41.566,1.757 -73.949,2.695 -80.3943,1.171 -19.9609,-4.726 -74.52732,4.024 -74.52732,4.024 0,-0.039 -5.980474,-7.93 -6.449224,-19.453 -1.050781,-26.641 3.246094,-72.5 7.152344,-85.196 5.5469,-18.164 99.9605,0.704 127.2225,0.86 3.949,0.039 12.738,-0.235 24.336,-0.586 -1.797,-79.102 -2.422,-170.5861 5.785,-179.45325 13.828,-14.96094 93.59,-3.51563 88.75,24.72655 -2.269,13.2813 0.387,81.2497 3.356,151.7187 73.281,-1.836 153.203,-2.227 161.328,5.508 14.453,13.75 3.672,93.555 -23.594,88.828"
         inkscape:connector-curvature="0"
         id="path14"
         style="fill:#231f20;fill-opacity:1;fill-rule:nonzero;stroke:none" /></g></g></svg>